<svg xmlns="http://www.w3.org/2000/svg" width="188" height="188">
  <path fill="#c48f56" fill-rule="evenodd" d="M4 54a4 4 0 1 0 4 4 4 4 0 0 0-4-4zm18 0a4 4 0 1 0 4 4 4 4 0 0 0-4-4zm18 0a4 4 0 1 0 4 4 4 4 0 0 0-4-4zm18 0a4 4 0 1 0 4 4 4 4 0 0 0-4-4zm18 0a4 4 0 1 0 4 4 4 4 0 0 0-4-4zm18 0a4 4 0 1 0 4 4 4 4 0 0 0-4-4zm18 0a4 4 0 1 0 4 4 4 4 0 0 0-4-4zm18 0a4 4 0 1 0 4 4 4 4 0 0 0-4-4zM4 72a4 4 0 1 0 4 4 4 4 0 0 0-4-4zm18 0a4 4 0 1 0 4 4 4 4 0 0 0-4-4zm18 0a4 4 0 1 0 4 4 4 4 0 0 0-4-4zm18 0a4 4 0 1 0 4 4 4 4 0 0 0-4-4zm18 0a4 4 0 1 0 4 4 4 4 0 0 0-4-4zm18 0a4 4 0 1 0 4 4 4 4 0 0 0-4-4zm18 0a4 4 0 1 0 4 4 4 4 0 0 0-4-4zm18 0a4 4 0 1 0 4 4 4 4 0 0 0-4-4zM4 90a4 4 0 1 0 4 4 4 4 0 0 0-4-4zm18 0a4 4 0 1 0 4 4 4 4 0 0 0-4-4zm18 0a4 4 0 1 0 4 4 4 4 0 0 0-4-4zm18 0a4 4 0 1 0 4 4 4 4 0 0 0-4-4zm18 0a4 4 0 1 0 4 4 4 4 0 0 0-4-4zm18 0a4 4 0 1 0 4 4 4 4 0 0 0-4-4zm18 0a4 4 0 1 0 4 4 4 4 0 0 0-4-4zm18 0a4 4 0 1 0 4 4 4 4 0 0 0-4-4zM4 108a4 4 0 1 0 4 4 4 4 0 0 0-4-4zm18 0a4 4 0 1 0 4 4 4 4 0 0 0-4-4zm18 0a4 4 0 1 0 4 4 4 4 0 0 0-4-4zm18 0a4 4 0 1 0 4 4 4 4 0 0 0-4-4zm18 0a4 4 0 1 0 4 4 4 4 0 0 0-4-4zm18 0a4 4 0 1 0 4 4 4 4 0 0 0-4-4zm18 0a4 4 0 1 0 4 4 4 4 0 0 0-4-4zm18 0a4 4 0 1 0 4 4 4 4 0 0 0-4-4zM4 126a4 4 0 1 0 4 4 4 4 0 0 0-4-4zm18 0a4 4 0 1 0 4 4 4 4 0 0 0-4-4zm18 0a4 4 0 1 0 4 4 4 4 0 0 0-4-4zm18 0a4 4 0 1 0 4 4 4 4 0 0 0-4-4zm18 0a4 4 0 1 0 4 4 4 4 0 0 0-4-4zm18 0a4 4 0 1 0 4 4 4 4 0 0 0-4-4zm18 0a4 4 0 1 0 4 4 4 4 0 0 0-4-4zm18 0a4 4 0 1 0 4 4 4 4 0 0 0-4-4zM4 144a4 4 0 1 0 4 4 4 4 0 0 0-4-4zm18 0a4 4 0 1 0 4 4 4 4 0 0 0-4-4zm18 0a4 4 0 1 0 4 4 4 4 0 0 0-4-4zm18 0a4 4 0 1 0 4 4 4 4 0 0 0-4-4zm18 0a4 4 0 1 0 4 4 4 4 0 0 0-4-4zm18 0a4 4 0 1 0 4 4 4 4 0 0 0-4-4zm18 0a4 4 0 1 0 4 4 4 4 0 0 0-4-4zm18 0a4 4 0 1 0 4 4 4 4 0 0 0-4-4zM4 162a4 4 0 1 0 4 4 4 4 0 0 0-4-4zm18 0a4 4 0 1 0 4 4 4 4 0 0 0-4-4zm18 0a4 4 0 1 0 4 4 4 4 0 0 0-4-4zm18 0a4 4 0 1 0 4 4 4 4 0 0 0-4-4zm18 0a4 4 0 1 0 4 4 4 4 0 0 0-4-4zm18 0a4 4 0 1 0 4 4 4 4 0 0 0-4-4zm18 0a4 4 0 1 0 4 4 4 4 0 0 0-4-4zm18 0a4 4 0 1 0 4 4 4 4 0 0 0-4-4zM4 180a4 4 0 1 0 4 4 4 4 0 0 0-4-4zm18 0a4 4 0 1 0 4 4 4 4 0 0 0-4-4zm18 0a4 4 0 1 0 4 4 4 4 0 0 0-4-4zm18 0a4 4 0 1 0 4 4 4 4 0 0 0-4-4zm18 0a4 4 0 1 0 4 4 4 4 0 0 0-4-4zm18 0a4 4 0 1 0 4 4 4 4 0 0 0-4-4zm18 0a4 4 0 1 0 4 4 4 4 0 0 0-4-4zm18 0a4 4 0 1 0 4 4 4 4 0 0 0-4-4zm18-126a4 4 0 1 0 4 4 4 4 0 0 0-4-4zm18 0a4 4 0 1 0 4 4 4 4 0 0 0-4-4zm18 0a4 4 0 1 0 4 4 4 4 0 0 0-4-4zm-36 18a4 4 0 1 0 4 4 4 4 0 0 0-4-4zm18 0a4 4 0 1 0 4 4 4 4 0 0 0-4-4zm18 0a4 4 0 1 0 4 4 4 4 0 0 0-4-4zm-36 18a4 4 0 1 0 4 4 4 4 0 0 0-4-4zm18 0a4 4 0 1 0 4 4 4 4 0 0 0-4-4zm18 0a4 4 0 1 0 4 4 4 4 0 0 0-4-4zm-36 18a4 4 0 1 0 4 4 4 4 0 0 0-4-4zm18 0a4 4 0 1 0 4 4 4 4 0 0 0-4-4zm18 0a4 4 0 1 0 4 4 4 4 0 0 0-4-4zm-36 18a4 4 0 1 0 4 4 4 4 0 0 0-4-4zm18 0a4 4 0 1 0 4 4 4 4 0 0 0-4-4zm18 0a4 4 0 1 0 4 4 4 4 0 0 0-4-4zm-36 18a4 4 0 1 0 4 4 4 4 0 0 0-4-4zm18 0a4 4 0 1 0 4 4 4 4 0 0 0-4-4zm18 0a4 4 0 1 0 4 4 4 4 0 0 0-4-4zm-36 18a4 4 0 1 0 4 4 4 4 0 0 0-4-4zm18 0a4 4 0 1 0 4 4 4 4 0 0 0-4-4zm18 0a4 4 0 1 0 4 4 4 4 0 0 0-4-4zm-36 18a4 4 0 1 0 4 4 4 4 0 0 0-4-4zm18 0a4 4 0 1 0 4 4 4 4 0 0 0-4-4zm18 0a4 4 0 1 0 4 4 4 4 0 0 0-4-4zM4 0a4 4 0 1 0 4 4 4 4 0 0 0-4-4zm18 0a4 4 0 1 0 4 4 4 4 0 0 0-4-4zm18 0a4 4 0 1 0 4 4 4 4 0 0 0-4-4zm18 0a4 4 0 1 0 4 4 4 4 0 0 0-4-4zm18 0a4 4 0 1 0 4 4 4 4 0 0 0-4-4zm18 0a4 4 0 1 0 4 4 4 4 0 0 0-4-4zm18 0a4 4 0 1 0 4 4 4 4 0 0 0-4-4zm18 0a4 4 0 1 0 4 4 4 4 0 0 0-4-4zM4 18a4 4 0 1 0 4 4 4 4 0 0 0-4-4zm18 0a4 4 0 1 0 4 4 4 4 0 0 0-4-4zm18 0a4 4 0 1 0 4 4 4 4 0 0 0-4-4zm18 0a4 4 0 1 0 4 4 4 4 0 0 0-4-4zm18 0a4 4 0 1 0 4 4 4 4 0 0 0-4-4zm18 0a4 4 0 1 0 4 4 4 4 0 0 0-4-4zm18 0a4 4 0 1 0 4 4 4 4 0 0 0-4-4zm18 0a4 4 0 1 0 4 4 4 4 0 0 0-4-4zM4 36a4 4 0 1 0 4 4 4 4 0 0 0-4-4zm18 0a4 4 0 1 0 4 4 4 4 0 0 0-4-4zm18 0a4 4 0 1 0 4 4 4 4 0 0 0-4-4zm18 0a4 4 0 1 0 4 4 4 4 0 0 0-4-4zm18 0a4 4 0 1 0 4 4 4 4 0 0 0-4-4zm18 0a4 4 0 1 0 4 4 4 4 0 0 0-4-4zm18 0a4 4 0 1 0 4 4 4 4 0 0 0-4-4zm18 0a4 4 0 1 0 4 4 4 4 0 0 0-4-4zm18-36a4 4 0 1 0 4 4 4 4 0 0 0-4-4zm18 0a4 4 0 1 0 4 4 4 4 0 0 0-4-4zm18 8a4 4 0 1 0-4-4 4 4 0 0 0 4 4zm-36 10a4 4 0 1 0 4 4 4 4 0 0 0-4-4zm18 0a4 4 0 1 0 4 4 4 4 0 0 0-4-4zm18 0a4 4 0 1 0 4 4 4 4 0 0 0-4-4zm-36 18a4 4 0 1 0 4 4 4 4 0 0 0-4-4zm18 0a4 4 0 1 0 4 4 4 4 0 0 0-4-4zm18 0a4 4 0 1 0 4 4 4 4 0 0 0-4-4z" style="isolation:isolate"/>
</svg>